<?xml version="1.0" encoding="UTF-8" standalone="no"?>
<!-- Created with Inkscape (http://www.inkscape.org/) -->

<svg
   width="250mm"
   height="257.23105mm"
   viewBox="0 0 250 257.23105"
   version="1.1"
   id="svg1"
   xml:space="preserve"
   inkscape:export-filename="Shieldicon.svg"
   inkscape:export-xdpi="96"
   inkscape:export-ydpi="96"
   xmlns:inkscape="http://www.inkscape.org/namespaces/inkscape"
   xmlns:sodipodi="http://sodipodi.sourceforge.net/DTD/sodipodi-0.dtd"
   xmlns="http://www.w3.org/2000/svg"
   xmlns:svg="http://www.w3.org/2000/svg"><sodipodi:namedview
     id="namedview1"
     pagecolor="#ffffff"
     bordercolor="#000000"
     borderopacity="0.25"
     inkscape:showpageshadow="2"
     inkscape:pageopacity="0.0"
     inkscape:pagecheckerboard="0"
     inkscape:deskcolor="#d1d1d1"
     inkscape:document-units="mm" /><defs
     id="defs1" /><g
     inkscape:label="Layer 1"
     inkscape:groupmode="layer"
     id="layer1"
     transform="translate(-59.691817,-39.944656)"><path
       style="fill:#000000;stroke-width:1.20793"
       d="M 164.89157,296.69825 C 129.68656,292.85862 98.486303,273.94921 78.97023,244.62427 70.172494,231.40476 64.164259,216.24133 61.431326,200.36001 c -2.08459,-12.11372 -2.311839,-26.91081 -0.593902,-38.6713 3.450745,-23.62276 15.569668,-46.8917 33.33705,-64.008799 13.168436,-12.686473 27.123806,-21.637656 42.889186,-27.509772 6.61279,-2.463058 14.97309,-4.518447 17.18791,-4.225664 4.57757,0.605124 6.23084,6.206211 2.77275,9.393769 -1.21954,1.124132 -1.76428,1.353526 -5.01225,2.110709 -21.1149,4.922408 -41.39379,17.399853 -55.867509,34.374837 -14.002562,16.42243 -21.611679,33.17203 -24.540401,54.01969 -0.787797,5.60781 -0.787465,19.12712 6.28e-4,25.5678 1.590695,12.99995 4.975823,24.55354 10.440865,35.63513 5.624118,11.40416 13.003946,21.39346 22.251477,30.11948 31.66073,29.87527 77.04481,37.57417 116.92556,19.83512 21.8221,-9.70653 40.56903,-27.49458 51.16025,-48.5435 6.92509,-13.76289 10.79975,-29.50098 11.28538,-45.839 l 0.20911,-7.03499 2.86294,-4.43835 c 3.47283,-5.38381 4.5335,-6.58009 5.8343,-6.58009 2.18005,0 2.64998,2.14448 2.87146,13.10351 0.21981,10.8767 -0.74998,19.75048 -3.29781,30.17562 -3.88615,15.90126 -10.79216,30.27737 -20.73904,43.17202 -3.66032,4.74508 -3.54236,4.60684 -7.90904,9.26833 -13.59764,14.51565 -29.1361,24.48339 -48.17649,30.90466 -8.09022,2.72838 -15.32666,4.31115 -24.49194,5.35694 -6.76705,0.77213 -19.567,0.84718 -25.94024,0.15209 z m 4.76241,-21.57982 c -0.8051,-0.32202 -10.10885,-6.75439 -13.93518,-9.6344 -2.39817,-1.80507 -3.67537,-3.72295 -3.67537,-5.51907 0,-1.31274 1.22289,-3.64077 2.34052,-4.45565 0.66346,-0.48375 1.39015,-0.65791 2.74511,-0.65791 1.78318,0 1.96757,0.0853 5.70214,2.63668 2.12266,1.45018 3.94351,2.63669 4.04634,2.63669 0.1028,0 0.19041,-6.65163 0.1946,-14.78139 0.004,-8.12977 0.14051,-15.35667 0.30291,-16.05978 0.37822,-1.63742 2.36027,-3.54789 3.99994,-3.85549 2.322,-0.43561 5.21791,1.1122 6.1199,3.271 0.3477,0.83215 0.43594,4.15671 0.43594,16.42372 v 15.38037 l 0.9473,-0.58872 c 0.52101,-0.32379 1.76096,-1.16398 2.75546,-1.86711 1.69106,-1.19559 1.95211,-1.27838 4.03103,-1.27838 2.15162,0 2.25729,0.0376 3.29757,1.17271 2.02088,2.20519 1.78033,5.1781 -0.57295,7.08044 -1.67882,1.35713 -13.30935,9.28967 -14.59535,9.95469 -1.05187,0.54395 -2.96997,0.60955 -4.13991,0.1416 z m 44.10416,-32.09401 c -2.94893,-0.97429 -4.23194,-3.42674 -3.20667,-6.12958 0.18771,-0.49483 1.53474,-2.12216 2.99341,-3.61627 1.45869,-1.49412 3.06689,-3.50759 3.57379,-4.47437 l 0.92166,-1.75779 v -6.87134 c 0,-6.63774 0.0275,-6.93664 0.81055,-8.79161 1.20163,-2.84677 2.9385,-5.28088 5.4768,-7.67539 2.80638,-2.64739 5.22171,-4.21255 11.05082,-7.16108 2.50484,-1.26703 4.54776,-2.40156 4.53981,-2.5212 -0.008,-0.1197 -0.86977,-0.75157 -1.91516,-1.4043 -2.22225,-1.38754 -3.07681,-2.62788 -3.35151,-4.8645 -0.29428,-2.39592 0.34918,-6.8965 1.09225,-7.63956 0.57587,-0.57586 0.68055,-0.58012 2.15735,-0.0877 0.85367,0.28467 3.92514,1.82025 6.82548,3.41241 2.90036,1.59217 7.64638,4.12926 10.54672,5.638 6.39501,3.32665 7.24915,3.93776 8.05735,5.76482 1.31893,2.98165 -0.41888,6.37692 -3.87961,7.57986 -1.8809,0.6538 -3.27606,0.61701 -5.77572,-0.1523 l -2.07738,-0.63935 -0.7191,0.81941 c -0.91927,1.04751 -0.9041,1.67532 0.11994,4.96212 0.68609,2.20209 0.84524,3.36298 0.87303,6.36836 0.036,3.88721 -0.36352,5.97707 -1.84239,9.63836 -3.5502,8.78942 -12.66656,16.09214 -23.67971,18.96881 -4.00496,1.0461 -10.37397,1.36686 -12.59172,0.63415 z M 98.670632,219.49631 c -1.655842,-0.49473 -3.044562,-1.68303 -3.80664,-3.25728 l -0.676096,-1.39663 0.08408,-35.01658 0.08408,-35.01658 0.975822,-1.20559 c 1.306254,-1.61383 2.93081,-2.40872 5.022962,-2.4577 2.15647,-0.0505 2.71155,0.25877 13.17707,7.34159 4.39447,2.97408 15.03707,10.13227 23.65023,15.90709 8.61315,5.77483 16.11122,10.87221 16.66236,11.32753 2.33633,1.93007 2.93073,4.50184 1.63459,7.07218 -0.8956,1.77605 -2.12042,2.68627 -18.26102,13.5707 -6.77725,4.57025 -16.96451,11.45159 -22.63838,15.29187 -5.67386,3.84029 -10.70914,7.18649 -11.1895,7.43601 -1.19444,0.62044 -3.37056,0.80644 -4.719565,0.40339 z M 117.75422,196.4474 c 6.29089,-4.27754 14.12969,-9.56953 17.41957,-11.75999 3.28986,-2.19045 5.98236,-4.12646 5.98333,-4.30224 9.7e-4,-0.17578 -5.71093,-4.15441 -12.69313,-8.84142 -6.98219,-4.687 -15.03194,-10.11782 -17.88835,-12.06848 l -5.19346,-3.54666 v 24.32728 c 0,21.20657 0.0599,24.30429 0.46703,24.14807 0.25686,-0.0986 5.61412,-3.67902 11.90501,-7.95656 z m 70.72333,23.17747 c -1.11917,-0.42054 -2.29402,-1.50427 -2.88361,-2.65996 -0.61852,-1.2124 -0.63196,-2.00738 -0.63196,-37.37873 0,-35.31909 0.0142,-36.16801 0.62925,-37.37345 1.77362,-3.47655 6.95864,-3.67635 9.19729,-0.35443 l 0.72018,1.06868 v 36.81899 36.819 l -0.71909,1.05348 c -0.3955,0.57941 -1.22022,1.31977 -1.83271,1.64525 -1.06712,0.56707 -3.42536,0.75721 -4.47935,0.36117 z m 16.9928,-8.70204 c -1.29708,-0.32353 -2.8554,-1.73395 -3.44927,-3.1219 -0.3621,-0.84631 -0.43909,-5.77036 -0.43477,-27.80499 l 0.005,-26.77656 0.71383,-1.24835 c 1.02099,-1.78549 2.15054,-2.50761 4.1865,-2.67645 2.06993,-0.17166 3.78509,0.6241 4.92227,2.28371 l 0.71361,1.04144 v 27.49825 27.49826 l -0.71911,1.05656 c -1.40146,2.05918 -3.50624,2.85668 -5.93833,2.25003 z m -34.10021,-8.82762 c -1.81036,-0.62237 -2.94984,-1.90605 -3.35614,-3.78084 -0.24133,-1.11357 -0.32109,-7.25545 -0.25184,-19.39256 l 0.10134,-17.76282 0.92102,-1.20724 c 2.24758,-2.94604 6.25981,-2.72925 8.42721,0.45532 l 0.71909,1.05656 v 18.521 c 0,16.42622 -0.0587,18.64465 -0.51879,19.61429 -1.02023,2.14995 -3.75847,3.2813 -6.0419,2.49629 z m 49.01853,-7.79514 c -0.64198,-0.34914 -1.46894,-1.12297 -1.83769,-1.71962 -0.64923,-1.05048 -0.67046,-1.45893 -0.67046,-12.90484 0,-11.73167 0.005,-11.82792 0.71911,-12.87658 1.07765,-1.58342 2.25196,-2.30841 3.97116,-2.45175 1.86341,-0.15535 3.68894,0.76618 4.80831,2.42723 0.72524,1.07616 0.72855,1.13407 0.72855,12.73072 0,12.85612 -0.0214,13.01035 -2.00462,14.47664 -1.41058,1.04289 -4.10588,1.19298 -5.71436,0.3182 z m 38.56015,-9.95044 c -2.10935,-1.2459 -5.48909,-3.17783 -7.51055,-4.29317 -4.81972,-2.65932 -5.23988,-3.05889 -5.00657,-4.76109 0.23104,-1.6856 2.00615,-6.90513 3.54057,-10.41068 3.04723,-6.96172 8.89743,-17.34111 16.48254,-29.24319 6.28685,-9.86491 22.82926,-33.06676 28.14722,-39.478372 1.69606,-2.044865 3.7141,-2.985382 6.7209,-3.132326 2.92284,-0.142838 5.17154,0.667513 6.70785,2.417281 2.87029,3.269076 2.41502,5.585407 -4.5098,22.945417 -8.2942,20.79295 -17.25663,40.56524 -22.5223,49.68716 -2.7952,4.84222 -6.69566,10.23871 -10.01359,13.85431 -5.20513,5.6721 -6.18762,5.86921 -12.03627,2.41466 z m -84.07518,-61.48272 c -1.20235,-0.59916 -4.22023,-3.4842 -12.5073,-11.95672 -11.80063,-12.064737 -11.59049,-11.785887 -11.1812,-14.837306 0.23889,-1.781078 2.37583,-3.878669 4.27901,-4.200207 2.6377,-0.445641 3.60162,0.115478 9.00857,5.244376 2.74383,2.60271 5.33744,5.108557 5.76359,5.568557 0.42613,0.45999 0.89355,0.83635 1.03868,0.83635 0.14515,0 0.2647,-13.195383 0.26568,-29.323079 0.001,-18.258108 0.12055,-29.750524 0.31647,-30.455846 0.39166,-1.409839 2.0869,-3.091275 3.53552,-3.506734 1.81878,-0.521618 2.97759,-0.36159 4.53536,0.626314 2.83409,1.797326 2.6264,-0.500207 2.71737,30.060391 0.0442,14.853296 0.11608,28.403564 0.15979,30.111704 l 0.0794,3.10573 5.75275,-5.310545 c 7.39462,-6.826206 7.81736,-7.133044 9.82728,-7.133044 1.97333,0 3.54636,0.727076 4.62087,2.135834 1.00338,1.315506 1.31325,3.633507 0.68592,5.131193 -0.63391,1.513422 -22.46749,23.358462 -24.0828,24.095422 -1.7343,0.79127 -2.93751,0.74319 -4.81498,-0.19239 z m 90.46713,-4.49289 c -0.70312,-0.2533 -1.30607,-0.46272 -1.33989,-0.46537 -0.0338,-0.002 -1.13495,-1.33513 -2.44694,-2.96109 -3.04627,-3.77525 -11.20997,-11.87522 -15.54882,-15.427407 -12.9701,-10.618532 -26.89808,-17.730276 -42.34066,-21.619495 -4.73427,-1.192327 -6.26789,-2.022251 -7.16626,-3.878065 -0.8212,-1.696363 -0.84128,-3.177247 -0.0658,-4.857375 1.38544,-3.001826 3.18896,-3.630317 7.75744,-2.703303 14.26118,2.893819 31.73816,11.115667 44.34473,20.861484 9.31403,7.200438 20.90943,19.024861 23.31575,23.776261 0.83025,1.63936 0.85014,2.73086 0.0803,4.4072 -0.71943,1.5667 -1.54045,2.32475 -3.13304,2.89274 -1.5305,0.54584 -1.87783,0.54328 -3.45682,-0.0256 z"
       id="path1" /></g></svg>
