<?xml version="1.0" encoding="UTF-8" standalone="no"?>
<!-- Created with Inkscape (http://www.inkscape.org/) -->

<svg
   width="250.00002mm"
   height="264.63449mm"
   viewBox="0 0 250.00002 264.63449"
   version="1.1"
   id="svg1"
   xml:space="preserve"
   inkscape:export-filename="TGicon.svg"
   inkscape:export-xdpi="96"
   inkscape:export-ydpi="96"
   xmlns:inkscape="http://www.inkscape.org/namespaces/inkscape"
   xmlns:sodipodi="http://sodipodi.sourceforge.net/DTD/sodipodi-0.dtd"
   xmlns="http://www.w3.org/2000/svg"
   xmlns:svg="http://www.w3.org/2000/svg"><sodipodi:namedview
     id="namedview1"
     pagecolor="#ffffff"
     bordercolor="#000000"
     borderopacity="0.25"
     inkscape:showpageshadow="2"
     inkscape:pageopacity="0.0"
     inkscape:pagecheckerboard="0"
     inkscape:deskcolor="#d1d1d1"
     inkscape:document-units="mm" /><defs
     id="defs1" /><g
     inkscape:label="Layer 1"
     inkscape:groupmode="layer"
     id="layer1"
     transform="translate(-33.39845,-21.856768)"><path
       style="fill:#000000;stroke-width:1.43891"
       d="m 184.01692,286.03258 c -1.59477,-0.63997 -10.56433,-9.55823 -11.5472,-11.48117 -1.2504,-2.44637 -1.12634,-5.25933 0.32885,-7.45581 0.65678,-0.99135 3.37746,-3.73258 6.04597,-6.09164 46.46117,-41.07324 50.25376,-44.49653 50.25376,-45.3605 0,-0.26475 -2.96041,-3.48322 -6.57869,-7.15217 -6.85167,-6.94762 -7.71525,-8.334 -6.8633,-11.01826 0.40261,-1.26851 18.11783,-19.81855 20.05835,-21.00359 2.09277,-1.27801 4.77146,-1.09097 6.89011,0.48112 0.97878,0.72626 10.44062,10.01769 21.02632,20.6476 20.93348,21.02093 20.66343,20.68067 19.17434,24.15859 -0.3666,0.85621 -3.4232,4.43144 -6.79244,7.94495 -3.36925,3.51351 -7.03864,7.39681 -8.1542,8.62953 -3.81393,4.21452 -7.06523,5.58273 -10.32299,4.34414 -0.70479,-0.26797 -4.26796,-3.4499 -7.91814,-7.07097 l -6.63671,-6.58377 -2.29436,2.39389 c -2.09362,2.18443 -6.54368,7.17363 -16.40016,18.3871 -33.01253,37.55753 -32.18662,36.73129 -36.66608,36.68058 -1.40528,-0.016 -3.02682,-0.21824 -3.60343,-0.44962 z M 93.420965,261.4167 c -2.92105,-2.56472 -2.90639,-2.30202 -1.19034,-21.33526 1.53002,-16.97003 1.53589,-17.13113 0.64669,-17.7688 -11.99115,-8.59907 -17.11258,-12.84897 -24.711056,-20.50587 -15.63437,-15.75459 -25.820375,-33.51243 -30.937511,-53.93512 -3.354818,-13.3892 -3.997435,-23.51789 -3.797284,-59.851289 0.140899,-25.577614 0.149962,-25.795825 1.14869,-27.66286 1.190954,-2.226389 2.906435,-3.760315 5.395423,-4.824407 0.996225,-0.425918 24.136065,-8.177322 51.421868,-17.225346 39.571825,-13.122109 50.088495,-16.45098 51.972475,-16.45098 1.8903,0 12.48451,3.375607 53.05708,16.905418 28.79269,9.60156 51.43158,17.389541 52.39967,18.025958 1.02638,0.674751 2.16928,2.037762 2.87278,3.426027 l 1.16827,2.305486 -0.1507,35.223164 c -0.14743,34.459139 -0.17343,35.345599 -1.19817,40.868319 -1.39418,7.51368 -3.74295,15.9621 -5.86267,21.08773 l -1.72811,4.17869 -3.87856,0.0584 c -3.47487,0.0524 -4.2585,0.23794 -7.52896,1.78313 -3.3639,1.58934 -4.27401,2.3593 -11.59603,9.81046 -14.04916,14.29696 -15.64893,16.55995 -15.93586,22.54247 -0.19686,4.1045 0.61545,7.0557 2.75503,10.00931 l 1.40897,1.94502 -1.77693,1.53535 c -2.81665,2.43374 -12.38196,9.74413 -16.37853,12.51749 -9.45358,6.56014 -23.20415,14.48845 -35.70586,20.58727 -7.21093,3.51777 -7.83984,3.7379 -11.13212,3.89624 -3.35799,0.1615 -3.65936,0.0879 -8.00236,-1.95494 l -4.51294,-2.12278 -7.51534,4.53833 c -4.13342,2.49608 -11.20048,6.61323 -15.70455,9.14925 -7.74777,4.36233 -8.33096,4.61091 -10.817815,4.61091 -2.26905,0 -2.84145,-0.18693 -4.18525,-1.36679 z M 150.9535,209.45516 c 17.60935,-8.82729 33.76643,-20.3651 45.53684,-32.51795 13.35726,-13.79126 20.43243,-28.04278 22.81801,-45.96237 0.92199,-6.92563 0.9581,-48.530519 0.0427,-49.290165 -0.34164,-0.283538 -5.73168,-2.27632 -11.9779,-4.428418 -17.9453,-6.182958 -46.16501,-15.970109 -55.38767,-19.209552 -7.24361,-2.544288 -8.63378,-2.900103 -9.81046,-2.510963 -0.75404,0.249349 -7.63369,2.643818 -15.28814,5.321034 -7.65444,2.677201 -24.08126,8.366381 -36.504045,12.642619 -12.422793,4.276238 -22.843555,7.983285 -23.157253,8.237886 -0.893221,0.72493 -0.798828,40.740969 0.11353,48.110079 3.06414,24.75028 16.044413,44.66884 40.925188,62.80079 9.97397,7.26856 28.46641,17.9801 34.59315,20.03768 0.90144,0.30273 1.61674,0.0173 8.09602,-3.23067 z m -50.38403,-72.44524 c -2.685365,-0.95154 -6.015725,-4.04518 -7.281935,-6.76437 -1.55971,-3.34944 -1.51813,-8.312 0.0968,-11.55275 2.0398,-4.09336 5.81695,-6.48853 10.795935,-6.84593 3.95423,-0.28385 6.71014,0.49726 9.48041,2.68703 6.25902,4.94746 6.34109,14.5473 0.17076,19.97862 -3.50573,3.08587 -8.7919,4.08133 -13.26199,2.4974 z m 37.90085,0.009 c -2.60674,-0.92449 -5.206,-3.28098 -6.80675,-6.17103 -1.18841,-2.14561 -1.35328,-2.8925 -1.34554,-6.09563 0.007,-3.06719 0.20499,-4.02496 1.23659,-5.9948 3.33694,-6.37189 11.11792,-8.85347 17.60141,-5.61363 4.62373,2.31051 7.03855,6.19266 7.07888,11.38028 0.0711,9.13784 -9.08053,15.57464 -17.76459,12.49481 z m 39.5223,0.33833 c -2.43722,-0.80199 -4.93877,-2.35417 -6.30879,-3.91455 -2.608,-2.97033 -3.04189,-4.20995 -3.04189,-8.69044 0,-4.6206 0.54458,-6.0897 3.35498,-9.0506 2.82441,-2.97566 4.70738,-3.71927 9.41796,-3.71927 4.66923,0 6.51904,0.71439 9.43797,3.64494 2.39553,2.40504 3.27206,4.50646 3.48476,8.35444 0.22178,4.01218 -0.64196,6.67017 -3.02453,9.30739 -2.63921,2.92129 -5.15142,4.1321 -8.91975,4.29904 -1.79298,0.0794 -3.77328,-0.0245 -4.40071,-0.23095 z"
       id="path1" /></g></svg>
