<?xml version="1.0" encoding="UTF-8" standalone="no"?>
<!-- Created with Inkscape (http://www.inkscape.org/) -->

<svg
   width="250mm"
   height="216.54225mm"
   viewBox="0 0 250 216.54225"
   version="1.1"
   id="svg1"
   xml:space="preserve"
   inkscape:export-filename="TGicon"
   inkscape:export-xdpi="96"
   inkscape:export-ydpi="96"
   xmlns:inkscape="http://www.inkscape.org/namespaces/inkscape"
   xmlns:sodipodi="http://sodipodi.sourceforge.net/DTD/sodipodi-0.dtd"
   xmlns="http://www.w3.org/2000/svg"
   xmlns:svg="http://www.w3.org/2000/svg"><sodipodi:namedview
     id="namedview1"
     pagecolor="#ffffff"
     bordercolor="#000000"
     borderopacity="0.25"
     inkscape:showpageshadow="2"
     inkscape:pageopacity="0.0"
     inkscape:pagecheckerboard="0"
     inkscape:deskcolor="#d1d1d1"
     inkscape:document-units="mm" /><defs
     id="defs1" /><g
     inkscape:label="Layer 1"
     inkscape:groupmode="layer"
     id="layer1"
     transform="translate(-25.66474,-47.693607)"><path
       style="fill:#000000;stroke-width:1.81818"
       d="m 113.34988,263.83226 c -2.23966,-0.87673 -3.78394,-3.32246 -3.39106,-5.37057 0.12818,-0.66831 2.45098,-6.96661 5.16175,-13.99623 6.8739,-17.82548 22.63805,-59.48347 26.19359,-69.21858 1.62818,-4.45795 2.97842,-8.61119 3.00055,-9.22943 0.0305,-0.85527 -0.18435,-1.32186 -0.89884,-1.95129 l -0.93902,-0.82724 -25.64088,-0.15018 -25.640864,-0.15 -1.260979,-0.69059 c -0.693539,-0.37981 -1.586264,-1.15414 -1.983835,-1.72073 -0.970045,-1.3824 -1.244882,-3.8794 -0.581019,-5.27879 0.55429,-1.1684 10.119324,-14.06367 25.135987,-33.88751 9.73821,-12.85564 12.16071,-15.99323 30.30537,-39.251319 5.89292,-7.55363 11.144,-14.295823 11.66906,-14.982642 2.56645,-3.357078 7.57492,-3.688424 10.63656,-0.703655 0.65702,0.640528 1.38502,1.724439 1.61778,2.408712 0.52013,1.529003 1.26633,-1.339402 -9.02125,34.677944 -4.43475,15.52632 -8.06317,28.60512 -8.06317,29.06403 0,1.2192 0.52351,1.8884 1.77876,2.2738 0.80095,0.24593 9.60536,0.33282 31.51345,0.311 20.58442,-0.0205 30.61723,0.0713 31.06858,0.28395 1.9652,0.92632 3.18026,3.40067 2.50622,5.10365 -0.1934,0.48862 -2.61215,3.70039 -5.37499,7.13727 -2.76286,3.4369 -6.86794,8.54541 -9.1224,11.35227 -4.74355,5.90585 -9.91867,12.3182 -27.37737,33.92255 -20.06583,24.83056 -38.13067,47.74034 -51.4852,65.29337 -1.69583,2.22899 -3.44576,4.34764 -3.88874,4.70815 -1.58667,1.29124 -3.95551,1.64031 -5.91804,0.87208 z m 106.08194,-11.29284 c -0.70591,-0.15618 -1.86336,-0.54449 -2.57215,-0.86298 -1.2732,-0.57207 -9.7635,-6.72852 -28.01317,-20.31278 -5.15524,-3.83733 -12.51745,-9.30458 -16.36044,-12.14943 -3.84301,-2.84485 -7.12307,-5.28058 -7.28901,-5.41276 -0.16818,-0.13382 0.14527,-0.74736 0.70785,-1.38547 0.92726,-1.05179 9.61967,-11.84393 27.88219,-34.61742 21.09185,-26.30164 27.27912,-34.18915 27.84096,-35.49147 0.77747,-1.80213 0.79152,-3.9011 0.0398,-5.95094 -0.76849,-2.09578 -3.57418,-4.77762 -6.17517,-5.9026 -1.89949,-0.82155 -2.07469,-0.83975 -9.50492,-0.98708 l -7.56978,-0.15 1.04571,-1.05071 c 0.99869,-1.00344 14.32633,-15.7869 17.14585,-19.01876 0.74129,-0.84969 4.05528,-4.58442 7.36443,-8.29937 6.30646,-7.079867 7.13693,-8.180233 7.13693,-9.456289 0,-1.015765 -0.82087,-2.393258 -1.77811,-2.983768 -0.89329,-0.551092 -3.0658,-0.614856 -4.12382,-0.121092 -0.84517,0.394456 -7.64794,4.608917 -14.71904,9.118742 -17.08381,10.895817 -22.29411,14.191787 -35.10678,22.208107 -7.87345,4.92608 -15.2067,9.55529 -16.29607,10.28713 -1.08938,0.73183 -2.04095,1.27756 -2.11458,1.21271 -0.0736,-0.0649 0.99027,-4.16557 2.36424,-9.11271 5.59361,-20.1405 7.4525,-26.890732 8.42068,-30.57821 1.04264,-3.971061 1.79233,-5.658427 2.90288,-6.533556 0.348,-0.274236 4.00708,-1.849275 8.13127,-3.500096 4.12421,-1.650821 13.0202,-5.255499 19.76888,-8.010413 11.44953,-4.673861 32.28362,-13.096293 45.67289,-18.463828 3.18688,-1.277566 7.32812,-2.961732 9.20274,-3.742588 8.16811,-3.402351 8.70262,-3.572387 11.24782,-3.578151 5.66145,-0.01273 10.50344,3.871606 10.97044,8.80085 0.12673,1.338402 -0.86989,6.195919 -4.96337,24.189656 -2.81714,12.383237 -6.05847,26.770276 -7.203,31.971246 -1.14453,5.20096 -2.98835,13.50897 -4.09738,18.46225 -1.10906,4.95329 -2.71892,12.18059 -3.57748,16.06067 -0.85859,3.88008 -2.9265,13.13373 -4.59537,20.56365 -1.66888,7.42994 -4.5003,20.19593 -6.29205,28.36885 -1.79175,8.17294 -3.63099,16.48095 -4.08721,18.46226 -0.45622,1.98131 -1.91589,8.53318 -3.24371,14.55968 -3.51673,15.96124 -3.59061,16.22292 -5.16683,18.30186 -2.94738,3.88745 -8.55059,6.08838 -12.99618,5.10487 z m -109.6404,-42.39165 c -8.16003,-29.85102 -8.3514,-30.4343 -10.695347,-32.60065 -1.346432,-1.24438 -2.520604,-1.77756 -7.04886,-3.20082 -14.835224,-4.66282 -61.115348,-20.15239 -62.427409,-20.89394 -3.98224,-2.2507 -5.070213,-6.2001 -2.747502,-9.97363 1.46973,-2.38777 2.745706,-3.08114 12.68516,-6.89316 6.635196,-2.54474 39.266214,-15.2658 52.319329,-20.39644 20.222679,-7.94871 23.739219,-9.29305 23.911529,-9.14129 0.0884,0.0778 -1.48368,2.35075 -3.49341,5.05093 -2.00973,2.70019 -6.74932,9.09722 -10.53241,14.21563 -3.783104,5.11839 -9.515916,12.86683 -12.739594,17.21876 -3.223678,4.35194 -6.141849,8.40461 -6.484828,9.00598 -3.424606,6.00457 0.148891,13.26162 7.473655,15.17746 1.55221,0.40598 4.284223,0.4756 18.665157,0.4756 h 16.84679 l -0.23866,0.82555 c -0.6486,2.24347 -5.38086,20.03036 -6.44944,24.24111 -0.6704,2.64177 -2.22441,8.51816 -3.45332,13.05867 -1.22891,4.54052 -2.40637,8.93094 -2.61655,9.75649 -0.21018,0.82555 -0.48054,1.60353 -0.6008,1.72884 -0.12018,0.12527 -1.18831,-3.31946 -2.37349,-7.65509 z"
       id="path1" /></g></svg>
